<svg width="224" height="224" viewBox="0 0 224 224" fill="none" xmlns="http://www.w3.org/2000/svg">
<g filter="url(#filter0_d_32_7861)">
<rect x="32" y="32" width="80" height="80" rx="12" fill="url(#paint0_linear_32_7861)" shape-rendering="crispEdges"/>
<rect x="32.5" y="32.5" width="79" height="79" rx="11.5" stroke="white" stroke-opacity="0.06" shape-rendering="crispEdges"/>
<path d="M95.8334 87.1666H90.0635C89.1254 84.0445 86.2566 81.75 82.8334 81.75C79.4101 81.75 76.5435 84.0445 75.6032 87.1666H48.1666C46.9706 87.1666 46 88.1374 46 89.3334C46 90.5294 46.9706 91.5 48.1666 91.5H75.6031C76.5413 94.6221 79.41 96.9166 82.8333 96.9166C86.2565 96.9166 89.1231 94.6221 90.0634 91.5H95.8333C97.0314 91.5 97.9999 90.5294 97.9999 89.3334C97.9999 88.1374 97.0315 87.1666 95.8334 87.1666ZM82.8334 92.5834C81.0415 92.5834 79.5834 91.1252 79.5834 89.3334C79.5834 87.5415 81.0415 86.0834 82.8334 86.0834C84.6252 86.0834 86.0834 87.5415 86.0834 89.3334C86.0834 91.1252 84.6251 92.5834 82.8334 92.5834ZM95.8334 52.5H90.0635C89.1231 49.3779 86.2566 47.0834 82.8334 47.0834C79.4101 47.0834 76.5435 49.3779 75.6031 52.5H48.1666C46.9706 52.5 46 53.4706 46 54.6666C46 55.8626 46.9706 56.8333 48.1666 56.8333H75.6031C76.5435 59.9555 79.41 62.25 82.8334 62.25C86.2567 62.25 89.1232 59.9555 90.0635 56.8334H95.8334C97.0315 56.8334 98 55.8627 98 54.6667C98 53.4707 97.0315 52.5 95.8334 52.5ZM82.8334 57.9166C81.0415 57.9166 79.5834 56.4585 79.5834 54.6666C79.5834 52.8748 81.0415 51.4166 82.8334 51.4166C84.6252 51.4166 86.0834 52.8748 86.0834 54.6666C86.0834 56.4585 84.6251 57.9166 82.8334 57.9166ZM95.8334 69.8334H68.3969C67.4565 66.7112 64.59 64.4167 61.1667 64.4167C57.7435 64.4167 54.8769 66.7112 53.9366 69.8334H48.1666C46.9706 69.8334 46 70.804 46 72C46 73.196 46.9706 74.1666 48.1666 74.1666H53.9365C54.8769 77.2888 57.7434 79.5833 61.1666 79.5833C64.5899 79.5833 67.4565 77.2888 68.3968 74.1666H95.8333C97.0314 74.1666 97.9999 73.196 97.9999 72C98 70.804 97.0315 69.8334 95.8334 69.8334ZM61.1666 75.25C59.3748 75.25 57.9166 73.7919 57.9166 72C57.9166 70.2081 59.3748 68.75 61.1666 68.75C62.9585 68.75 64.4166 70.2081 64.4166 72C64.4166 73.7919 62.9585 75.25 61.1666 75.25Z" fill="url(#paint1_linear_32_7861)"/>
</g>
<defs>
<filter id="filter0_d_32_7861" x="-96" y="-96" width="320" height="320" filterUnits="userSpaceOnUse" color-interpolation-filters="sRGB">
<feFlood flood-opacity="0" result="BackgroundImageFix"/>
<feColorMatrix in="SourceAlpha" type="matrix" values="0 0 0 0 0 0 0 0 0 0 0 0 0 0 0 0 0 0 127 0" result="hardAlpha"/>
<feOffset dx="-8" dy="-8"/>
<feGaussianBlur stdDeviation="60"/>
<feComposite in2="hardAlpha" operator="out"/>
<feColorMatrix type="matrix" values="0 0 0 0 0.364706 0 0 0 0 0.196078 0 0 0 0 0.960784 0 0 0 0.8 0"/>
<feBlend mode="normal" in2="BackgroundImageFix" result="effect1_dropShadow_32_7861"/>
<feBlend mode="normal" in="SourceGraphic" in2="effect1_dropShadow_32_7861" result="shape"/>
</filter>
<linearGradient id="paint0_linear_32_7861" x1="72" y1="32" x2="72" y2="112" gradientUnits="userSpaceOnUse">
<stop stop-color="#5D32F5"/>
<stop offset="1" stop-color="#361D8F"/>
</linearGradient>
<linearGradient id="paint1_linear_32_7861" x1="72" y1="47.0834" x2="72" y2="96.9166" gradientUnits="userSpaceOnUse">
<stop stop-color="white"/>
<stop offset="1" stop-color="#8A6DF2"/>
</linearGradient>
</defs>
</svg>
