<svg width="16" height="18" viewBox="0 0 16 18" fill="none" xmlns="http://www.w3.org/2000/svg">
<path fill-rule="evenodd" clip-rule="evenodd" d="M1.82635 11.4912C2.66474 13.6631 4.36588 15.6333 7.9996 16.9408C11.6336 15.6332 13.335 13.6629 14.1735 11.4909C15.0714 9.16483 15.0302 6.50338 14.9744 3.77332L14.9739 3.75014C12.2929 3.51135 10.0077 2.70574 7.99962 1.25892C5.99173 2.70572 3.70694 3.51126 1.02614 3.75011L1.02565 3.77384C0.969754 6.5038 0.928487 9.16516 1.82635 11.4912ZM7.99959 0C10.1922 1.78033 12.7538 2.68511 15.9567 2.81102C15.9612 3.11762 15.9676 3.43027 15.9742 3.75287C16.0842 9.13153 16.2082 15.2204 7.99959 17.9999C-0.20837 15.2205 -0.0842694 9.13183 0.0258638 3.75336C0.0324739 3.43057 0.038871 3.11772 0.0433488 2.81102C3.24606 2.68501 5.80716 1.78033 7.99959 0ZM1.56927 4.78135C1.48041 9.11085 1.38028 14.012 8.00281 16.2494C14.6259 14.0119 14.5258 9.11061 14.4371 4.78095C14.4317 4.52127 14.4266 4.2696 14.4229 4.0228C11.8387 3.92144 9.77193 3.19312 8.00281 1.76001C6.23387 3.19312 4.16746 3.92136 1.58337 4.0228C1.57976 4.26968 1.5746 4.52151 1.56927 4.78135ZM8.35585 11.021V11.0168V11.0126L7.9913 10.425L7.62676 11.0126V11.0168V11.021L7.9913 11.6086L8.35585 11.021ZM8.85131 10.7733C8.89222 10.8409 8.91313 10.9289 8.91313 11.0168C8.91313 11.1047 8.89222 11.1926 8.85131 11.2603L8.14312 12.4016C8.0604 12.5352 7.92403 12.5352 7.8413 12.4016L7.13312 11.2603C7.09221 11.1926 7.0713 11.1056 7.0713 11.0168C7.0713 10.928 7.0913 10.8401 7.13312 10.7733L7.8413 9.63192C7.92403 9.49834 8.0604 9.49834 8.14312 9.63192L8.85131 10.7733ZM8.35579 6.98406V6.98829L7.99124 7.57588L7.62669 6.98829V6.98406V6.97984L7.99124 6.39225L8.35579 6.97984V6.98406ZM8.91306 6.98406C8.91306 6.89614 8.89215 6.80736 8.85124 6.74057L8.14306 5.59921C8.06033 5.46563 7.92397 5.46563 7.84124 5.59921L7.13305 6.74057C7.09123 6.80736 7.07123 6.89529 7.07123 6.98406C7.07123 7.07199 7.09214 7.15992 7.13305 7.22755L7.84124 8.36892C7.92397 8.5025 8.06033 8.5025 8.14306 8.36892L8.85124 7.22755C8.89215 7.15992 8.91306 7.07199 8.91306 6.98406ZM10.0559 8.28299L10.4205 7.6954H9.69045C9.68773 7.69624 9.685 7.69793 9.68227 7.69962L9.31773 8.28721H10.0477C10.0505 8.28637 10.0532 8.28468 10.0559 8.28299ZM11.0823 7.17798C11.2005 7.17798 11.2686 7.23378 11.2686 7.31325C11.2686 7.34538 11.2577 7.38173 11.2332 7.42062L10.525 8.56199C10.4423 8.69641 10.2386 8.80548 10.0723 8.80548H8.6559C8.53772 8.80548 8.46954 8.75052 8.46954 8.6702C8.46954 8.63723 8.48136 8.60088 8.50499 8.56199L9.21318 7.42147C9.29591 7.28704 9.49955 7.17798 9.66591 7.17798H11.0823ZM6.66476 9.71205L6.30021 10.2996C6.29844 10.3007 6.29667 10.3018 6.2949 10.3027C6.29394 10.3032 6.29299 10.3036 6.29203 10.3039H5.56203L5.92658 9.71628C5.9293 9.71459 5.93203 9.7129 5.93476 9.71205H6.66476ZM7.51295 9.32991C7.51295 9.25043 7.44477 9.19463 7.32658 9.19463H5.91021C5.74385 9.19463 5.54021 9.3037 5.45748 9.43812L4.7493 10.5786C4.72566 10.6175 4.71384 10.6539 4.71384 10.6869C4.71384 10.7672 4.78202 10.8221 4.90021 10.8221H6.31658C6.48294 10.8221 6.68658 10.7131 6.76931 10.5786L7.47749 9.43728C7.50204 9.39923 7.51295 9.36203 7.51295 9.32991ZM5.9359 8.28783H6.665L6.30136 7.70024C6.3 7.6994 6.29863 7.69876 6.29727 7.69813C6.29591 7.69749 6.29454 7.69686 6.29318 7.69601H5.56317L5.92772 8.2836C5.92908 8.28445 5.93044 8.28508 5.9318 8.28571L5.93181 8.28572C5.93318 8.28635 5.93454 8.28699 5.9359 8.28783ZM7.47773 8.5626C7.50137 8.6015 7.51318 8.63785 7.51318 8.67082C7.51318 8.7503 7.445 8.8061 7.32682 8.80525H5.91045C5.74408 8.80525 5.54045 8.69534 5.45772 8.56176L4.74953 7.42124C4.7259 7.38235 4.71408 7.346 4.71408 7.31302C4.71408 7.2327 4.78226 7.17775 4.90044 7.17775H6.31681C6.48318 7.17775 6.68682 7.28766 6.76954 7.42124L7.47773 8.5626ZM10.4205 10.3039H9.69143C9.69007 10.3031 9.6887 10.3024 9.68734 10.3018C9.68598 10.3012 9.68461 10.3005 9.68325 10.2997L9.3187 9.71211H10.0487C10.0501 9.71296 10.0514 9.71359 10.0528 9.71422C10.0542 9.71486 10.0555 9.71549 10.0569 9.71634L10.4205 10.3039ZM11.2687 10.6869C11.2687 10.6539 11.2569 10.6176 11.2333 10.5787L10.5251 9.43734C10.4423 9.30376 10.2387 9.19385 10.0723 9.19385H8.65597C8.53779 9.19385 8.4696 9.2488 8.4696 9.32912C8.4696 9.36209 8.48142 9.39845 8.50506 9.43734L9.21324 10.5779C9.29597 10.7114 9.49961 10.8205 9.66598 10.8213H11.0823C11.2005 10.8222 11.2687 10.7664 11.2687 10.6869Z" fill="white"/>
</svg>
